<?xml version="1.0" encoding="UTF-8"?>
<svg width="40px" height="40px" viewBox="0 0 40 40" version="1.1" xmlns="http://www.w3.org/2000/svg" xmlns:xlink="http://www.w3.org/1999/xlink">
    <!-- Generator: Sketch 45.2 (43514) - http://www.bohemiancoding.com/sketch -->
    <title>Group 3</title>
    <desc>Created with Sketch.</desc>
    <defs></defs>
    <g id="Footer-Desktop/Tablet/Mobile" stroke="none" stroke-width="1" fill="none" fill-rule="evenodd">
        <g id="Footer_320_expand" transform="translate(-226.000000, -579.000000)">
            <g id="Group-3" transform="translate(226.000000, 579.000000)">
                <g id="Group-6" fill="#007BC4">
                    <circle id="Oval-2" cx="20" cy="20" r="20"></circle>
                </g>
                <g id="Group-2" transform="translate(11.000000, 8.000000)" fill="#FFFFFF">
                    <rect id="Rectangle" x="0.5" y="6" width="3" height="12.8533325" rx="1.5"></rect>
                    <path d="M5.5,22.5 C2.73857625,22.5 0.5,20.2614237 0.5,17.5 C0.5,14.7385763 2.73857625,12.5 5.5,12.5 C8.26142375,12.5 10.5,14.7385763 10.5,17.5 C10.5,20.2614237 8.26142375,22.5 5.5,22.5 Z M5.5,19.5 C6.6045695,19.5 7.5,18.6045695 7.5,17.5 C7.5,16.3954305 6.6045695,15.5 5.5,15.5 C4.3954305,15.5 3.5,16.3954305 3.5,17.5 C3.5,18.6045695 4.3954305,19.5 5.5,19.5 Z" id="Oval" fill-rule="nonzero"></path>
                    <path d="M16.4745586,16.9422223 C16.4745586,11.5882711 12.4478417,7.10826464 7.16904273,6.50955558 C6.34589301,6.41619586 5.6029153,7.00780755 5.50955558,7.83095727 C5.41619586,8.65410699 6.00780755,9.3970847 6.83095727,9.49044442 C10.5975698,9.91764482 13.4745586,13.1184977 13.4745586,16.9422223 C13.4745586,17.7706494 14.1461315,18.4422223 14.9745586,18.4422223 C15.8029857,18.4422223 16.4745586,17.7706494 16.4745586,16.9422223 Z" id="Oval" fill-rule="nonzero"></path>
                    <path d="M22.4398043,15.488588 C22.4398043,7.43598173 16.0814518,0.828614431 8.06117509,0.501247983 C7.2334372,0.467461915 6.53503405,1.11108703 6.50124798,1.93882491 C6.46746192,2.7665628 7.11108703,3.46496595 7.93882491,3.49875202 C14.352758,3.76055177 19.4398043,9.04682419 19.4398043,15.488588 C19.4398043,16.3170151 20.1113772,16.988588 20.9398043,16.988588 C21.7682314,16.988588 22.4398043,16.3170151 22.4398043,15.488588 Z" id="Oval" fill-rule="nonzero"></path>
                </g>
            </g>
        </g>
    </g>
</svg>